<?xml version="1.0" encoding="UTF-8"?>
<svg width="69px" height="68px" viewBox="0 0 69 68" version="1.1" xmlns="http://www.w3.org/2000/svg" xmlns:xlink="http://www.w3.org/1999/xlink">
    <!-- Generator: Sketch 49.2 (51160) - http://www.bohemiancoding.com/sketch -->
    <title>Group</title>
    <desc>Created with Sketch.</desc>
    <defs></defs>
    <g id="Page-1" stroke="none" stroke-width="1" fill="none" fill-rule="evenodd">
        <g id="Artboard" transform="translate(-270.000000, -22.000000)">
            <g id="Page-1" transform="translate(270.000000, 22.000000)">
                <g id="Group">
                    <path d="M63.9000267,29.6779362 C70.7016159,22.89288 70.7008657,11.8852684 63.8925248,5.09315615 C57.084559,-1.69524236 46.0515284,-1.69895613 39.2469385,5.08944239 L34.4997421,9.82264109 L29.7540461,5.08944239 C22.9532071,-1.69524236 11.9149252,-1.69524236 5.10770957,5.09315615 C-1.7006313,11.8852684 -1.70250677,22.889909 5.10170806,29.6779362 L22.1745108,46.7059388 L34.4997421,59 L63.9000267,29.6779362 Z" id="Fill-14" fill="#FF5A67"></path>
                    <path d="M40.272587,31.6740214 L40.2414616,31.6572895 L40.2490532,31.6368393 L40.2710687,31.6680723 L40.272587,31.6740214 Z M39.4526982,34.0124046 L39.4170179,34.2128162 L39.3331311,34.2369846 L39.4082876,34.0254184 L39.4526982,34.0124046 Z M60.8218091,9.20003572 C60.7113518,8.63858578 60.1226261,7.99236062 59.0537341,7.26247571 C57.9837033,6.53370626 56.8058723,5.89491752 55.5187228,5.34648133 C54.2308141,4.7991606 53.0040176,4.39759376 51.835676,4.14178081 C50.8836941,3.93430461 50.2460028,3.95549841 49.9131127,4.19904126 C49.7533103,4.26448179 49.6307066,4.35818072 49.5589663,4.4879463 C48.8020875,5.76403648 48.0569756,7.12453006 47.3213532,8.57091433 C46.5868695,10.0176704 45.889964,11.4395145 45.2287388,12.8338438 C44.5686525,14.2296604 43.9867592,15.5433045 43.4879935,16.7736607 C42.9880891,18.005876 42.5587862,19.0246659 42.2023623,19.8330051 C41.800389,20.8897208 41.3934813,21.9334228 40.9835369,22.9615083 C40.6255947,23.8613154 40.2786603,24.7953302 39.9381787,25.7553724 L41.071599,13.6756469 C40.9945446,13.2231405 40.6498877,12.6843717 40.0383873,12.0597122 C39.4246094,11.4354245 38.9190113,11.0624879 38.5177972,10.9405305 C38.3948139,10.8754618 38.2767651,10.8620763 38.1617529,10.8903347 C38.0535732,10.9007457 37.9491892,10.9487106 37.8489805,11.0401786 C32.5098344,12.6393813 27.2496404,14.2006583 22.0683987,15.7236378 C19.2291542,16.5598635 16.3747266,17.4131931 13.5092911,18.2825109 C13.5054954,18.2970119 13.5028383,18.3122566 13.4990425,18.3275013 C12.7554489,18.5543122 12.0141328,18.777033 11.2690209,19.0060749 C10.7619045,20.2992688 10.805556,21.9951451 12.8837463,23.6969705 L36.4946457,15.8954191 C35.5286193,24.0304941 34.6085219,32.1231814 33.7373901,40.171622 C33.1000784,46.059038 32.4282251,51.9773153 31.7400499,57.9104653 C31.4853529,60.1090438 31.2352109,62.3020449 30.9736816,64.5069443 C30.9478703,64.8583153 30.9649513,65.1888643 31.0234063,65.5004504 C31.0336549,65.8161266 31.0780656,66.1150708 31.1627115,66.3954239 C31.286454,66.8051708 31.5445671,67.1617473 31.939708,67.4621788 C32.4058299,67.8031388 33.0207465,67.981613 33.783319,67.9968576 C34.5462711,68.0128459 35.2143286,67.9678556 35.7893895,67.8611429 L35.8725171,67.8373464 L37.0848897,54.9169333 L38.2441214,42.5598292 C38.769078,40.6854788 39.3259191,38.8163339 39.9161631,36.9520226 C40.5037501,35.0891987 41.0901983,33.2126173 41.671712,31.3211631 C42.3363534,29.109571 43.1053787,26.8373719 43.978788,24.5049378 C44.5918067,22.7235427 45.2871939,21.0075881 46.0619129,19.3567022 C46.4934932,18.5788524 46.9330447,17.8281455 47.3820857,17.1030942 C47.830747,16.3806457 48.2866204,15.6834811 48.7523628,15.0138312 C48.908749,14.7316189 49.1850819,14.3400913 49.5798431,13.8381327 C49.974984,13.3384051 50.4004911,12.8431393 50.8594011,12.3538227 C51.3175519,11.8652497 51.7969591,11.44472 52.2968635,11.0911181 C52.5553562,10.9085539 52.8009433,10.7910584 53.0328655,10.7356571 C53.1702728,10.7263615 53.3019864,10.737888 53.4287655,10.7765574 C53.8804635,10.8817828 54.2095578,11.2283201 54.417187,11.8135666 C54.6225388,12.4017876 54.7493179,13.0714375 54.7944877,13.8199135 C54.8404166,14.5717359 54.8358617,15.3064544 54.7834799,16.0277875 C54.7299594,16.7487487 54.715915,17.2529382 54.7424855,17.538125 C54.635824,18.9796756 54.3386143,20.3877623 53.8519952,21.7627569 C53.3657555,23.136636 52.7713362,24.4532547 52.0706349,25.7141002 C51.1357339,27.39436 50.0520383,29.0300012 48.8206868,30.618793 C47.5881966,32.2083284 46.2820682,33.7015621 44.9015425,35.098866 C44.2589167,35.7562458 43.5851655,36.4054455 42.878391,37.0494398 C42.1727552,37.693434 41.4253658,38.3058234 40.6403982,38.8854926 C40.5781474,39.0792114 40.4817346,39.402324 40.3466047,39.8511121 C40.2110953,40.3013875 40.1264494,40.7669076 40.0915282,41.2476724 C40.0562275,41.7276935 40.0805205,42.1619806 40.1666847,42.5475591 C40.1947735,42.6739783 40.2391841,42.7739982 40.2904272,42.861748 C40.3777302,43.2499292 40.5773883,43.4588927 40.8886423,43.4864075 C41.1998964,43.5157814 41.7457298,43.3131388 42.5242446,42.8784799 C43.3023798,42.4460519 43.8140511,42.1344658 44.0607769,41.9433497 C45.0602062,41.2391205 46.0197797,40.5003118 46.9387384,39.7280393 C47.8573175,38.9587414 48.7641297,38.1451967 49.659175,37.2918672 C51.5418826,35.4989456 53.2310053,33.5097024 54.7238862,31.3248814 C56.2163874,29.1411758 57.4610242,26.8340255 58.4558985,24.4075207 C59.4507728,21.9806441 60.1677959,19.4875833 60.6073474,16.9238764 C61.0457602,14.3620287 61.1167413,11.7875391 60.8218091,9.20003572 Z" id="Fill-15" fill="#FFFFFF"></path>
                </g>
            </g>
        </g>
    </g>
</svg>