<svg version="1" xmlns="http://www.w3.org/2000/svg" width="736" height="736" viewBox="0 0 552.000000 552.000000"><path d="M122.1 5.1C86.9 9.6 53.2 28.3 31.4 55.4.3 93.9-8.3 145.5 8.7 191c4.6 12.4 7.8 18.6 15.4 30.1 5.5 8.3 18.9 22.1 118 121.4 70.8 70.9 112.2 111.6 112.8 111 .5-.6 6.3-50.3 13-110.5 12.8-115.1 22.7-202.3 23.6-207.8.4-2.2.2-3.2-.6-3.2-.7 0-42.8 13.7-93.7 30.5-50.8 16.8-92.9 30.5-93.7 30.5-.7 0-3.6-2.5-6.3-5.5-7.9-8.6-10.7-18.4-8.2-27.7l1.1-3.7 14.2-4.5c18-5.7 48.9-14.9 123.7-37.1 32.7-9.7 63.8-19 69.1-20.6l9.7-3.1 3.9 2c4.8 2.5 15.7 13.9 17 17.8.7 2.1-.3 15.6-3.3 47.4-2.4 24.5-4.3 45.6-4.3 47 0 2.3.1 2.3.9.5.5-1.1 4.4-11 8.6-22 19.7-51.9 58.2-133.6 68.1-144.7 3.8-4.3 14-3.3 33.4 3.2 24.6 8.2 49.4 23.2 54.5 33.2 2.1 4.1 3 33 1.5 47.3-5.1 47.9-24.2 97.2-53.5 138-23.5 32.7-68.4 73.9-95.1 87.1-11.1 5.5-13.7 5.5-16.2-.4-1.9-4.6-1.3-19.2 1.1-26.9 1.4-4.4 2.6-5.9 8.4-10.4 10.6-8.2 42.8-41.1 54.2-55.4 29.2-36.6 46.6-71.6 51-102.5 1.4-10.1 1.5-41.4.1-47-2.6-10.2-6.3-15-11.6-15-6.1 0-21.2 13.9-32.8 30.2-10.6 14.9-24.2 38.3-29.6 50.9-5.2 12.3-15.9 41.2-21.8 58.9-5.8 17.7-24.1 76.5-29.9 95.8L306 344l-5 54.1c-2.8 29.7-5 54.9-4.8 56 .2 1.5 28.5-26.3 112.9-110.8 106.3-106.5 113-113.4 119.6-123.5 33.7-51.4 30.5-116.6-8.1-164.4-19.6-24.3-47.9-41.5-80.4-48.6-13.1-2.9-40.5-3.2-53.2-.5-12.4 2.6-26.2 7.3-36.5 12.4-16.9 8.5-25.5 15.3-50.7 40.2L276 82.3l-23.8-23.4c-24.9-24.6-33.8-31.7-50-39.8-24.6-12.4-53.7-17.4-80.1-14z"/></svg>